<svg width="28" height="30" viewBox="0 0 28 30" fill="none" xmlns="http://www.w3.org/2000/svg">
<circle cx="21" cy="7" r="7" fill="#FC5550"/>
<path d="M4.375 11.625C4.14294 11.625 3.92038 11.7172 3.75628 11.8813C3.59219 12.0454 3.5 12.2679 3.5 12.5V24.3125C3.5 25.9662 4.90875 27.375 6.5625 27.375H21.4375C23.0912 27.375 24.5 26.0346 24.5 24.3809V12.5C24.5 12.2679 24.4078 12.0454 24.2437 11.8813C24.0796 11.7172 23.8571 11.625 23.625 11.625H4.375Z" stroke="black" stroke-width="1.625" stroke-linecap="round" stroke-linejoin="round"/>
<path d="M8.75 11.625V9.875C8.75 8.48261 9.30312 7.14726 10.2877 6.16269C11.2723 5.17812 12.6076 4.625 14 4.625V4.625C15.3924 4.625 16.7277 5.17812 17.7123 6.16269C18.6969 7.14726 19.25 8.48261 19.25 9.875V11.625" stroke="black" stroke-width="1.625" stroke-linecap="round" stroke-linejoin="round"/>
</svg>
