<svg width="28" height="28" viewBox="0 0 28 28" fill="none" xmlns="http://www.w3.org/2000/svg">
<path d="M4.375 9.625C4.14294 9.625 3.92038 9.71719 3.75628 9.88128C3.59219 10.0454 3.5 10.2679 3.5 10.5V22.3125C3.5 23.9662 4.90875 25.375 6.5625 25.375H21.4375C23.0912 25.375 24.5 24.0346 24.5 22.3809V10.5C24.5 10.2679 24.4078 10.0454 24.2437 9.88128C24.0796 9.71719 23.8571 9.625 23.625 9.625H4.375Z" stroke="black" stroke-width="1.625" stroke-linecap="round" stroke-linejoin="round"/>
<path d="M8.75 9.625V7.875C8.75 6.48261 9.30312 5.14726 10.2877 4.16269C11.2723 3.17812 12.6076 2.625 14 2.625V2.625C15.3924 2.625 16.7277 3.17812 17.7123 4.16269C18.6969 5.14726 19.25 6.48261 19.25 7.875V9.625" stroke="black" stroke-width="1.625" stroke-linecap="round" stroke-linejoin="round"/>
</svg>
