<svg width="24" height="24" viewBox="0 0 24 24" fill="none" xmlns="http://www.w3.org/2000/svg">
<path d="M22.4134 11.6862C20.1667 7.53286 16.2267 5.01953 11.8667 5.01953C7.50673 5.01953 3.56006 7.53286 1.3334 11.6862L1.14673 11.9995L1.32006 12.3195C3.56673 16.4729 7.50673 18.9862 11.8667 18.9862C16.2267 18.9862 20.1734 16.5062 22.4134 12.3195L22.5867 11.9995L22.4134 11.6862ZM11.8667 17.6195C8.1134 17.6195 4.66673 15.5262 2.66673 11.9995C4.66673 8.47286 8.1134 6.37953 11.8667 6.37953C15.6201 6.37953 19.0267 8.47953 21.0601 11.9995C19.0267 15.5262 15.6134 17.6195 11.8667 17.6195Z" fill="black"/>
<path d="M12.06 7.44672C11.1561 7.45331 10.2744 7.72764 9.52626 8.23504C8.77815 8.74244 8.19719 9.46016 7.85676 10.2975C7.51632 11.1349 7.43167 12.0544 7.61351 12.9399C7.79534 13.8254 8.23551 14.6371 8.8784 15.2725C9.5213 15.908 10.3381 16.3387 11.2256 16.5102C12.1131 16.6817 13.0316 16.5863 13.865 16.2362C14.6983 15.886 15.4092 15.2967 15.9079 14.5428C16.4065 13.7888 16.6706 12.904 16.6666 12C16.664 11.3983 16.5427 10.8031 16.3096 10.2483C16.0765 9.69359 15.7363 9.19031 15.3083 8.76732C14.8804 8.34433 14.3731 8.00994 13.8157 7.78333C13.2583 7.55671 12.6617 7.44232 12.06 7.44672ZM12.06 15.26C11.4215 15.2535 10.7992 15.0584 10.2712 14.6993C9.74321 14.3401 9.33311 13.833 9.09241 13.2416C8.8517 12.6502 8.79111 12.0008 8.91825 11.3751C9.0454 10.7493 9.3546 10.1751 9.80703 9.72452C10.2595 9.27394 10.8349 8.96708 11.4612 8.84249C12.0875 8.71791 12.7366 8.78114 13.327 9.02426C13.9174 9.26738 14.4229 9.67955 14.7798 10.209C15.1368 10.7384 15.3293 11.3615 15.3333 12C15.3351 12.4298 15.2515 12.8556 15.0875 13.2528C14.9235 13.65 14.6822 14.0107 14.3777 14.3139C14.0732 14.6172 13.7116 14.8569 13.3137 15.0194C12.9158 15.1818 12.4897 15.2636 12.06 15.26Z" fill="black"/>
</svg>
