<svg width="33" height="30" viewBox="0 0 33 30" fill="none" xmlns="http://www.w3.org/2000/svg">
<circle cx="26" cy="7" r="7" fill="#FC5550"/>
<path d="M14 27.2232C13.8281 27.2226 13.6613 27.1652 13.5256 27.0598C9.20111 23.6998 6.22222 20.8065 4.13778 17.952C1.47778 14.3043 0.871109 10.9365 2.33333 7.94205C3.37555 5.80316 6.37 4.05316 9.87 5.07205C11.5388 5.55407 12.9947 6.58777 14 8.00427C15.0053 6.58777 16.4612 5.55407 18.13 5.07205C21.6222 4.06871 24.6244 5.80316 25.6667 7.94205C27.1289 10.9365 26.5222 14.3043 23.8622 17.952C21.7778 20.8065 18.7989 23.6998 14.4744 27.0598C14.3387 27.1652 14.1718 27.2226 14 27.2232ZM7.87889 6.33982C7.04608 6.30741 6.22018 6.50242 5.48982 6.90391C4.75947 7.3054 4.15224 7.89821 3.73333 8.61871C2.52778 11.092 3.07222 13.8454 5.39778 17.0265C7.86922 20.2143 10.7632 23.0507 14 25.4576C17.2363 23.0531 20.1302 20.2193 22.6022 17.0343C24.9356 13.8454 25.4722 11.092 24.2667 8.62649C23.4889 7.07094 21.1556 5.83427 18.5578 6.56538C17.7248 6.81155 16.9526 7.22938 16.2909 7.79199C15.6291 8.35461 15.0925 9.04953 14.7156 9.83205C14.657 9.9747 14.5573 10.0967 14.4292 10.1826C14.3011 10.2684 14.1503 10.3143 13.9961 10.3143C13.8419 10.3143 13.6912 10.2684 13.5631 10.1826C13.4349 10.0967 13.3353 9.9747 13.2767 9.83205C12.9025 9.04757 12.3668 8.35102 11.7047 7.78806C11.0425 7.2251 10.2689 6.80843 9.43444 6.56538C8.92887 6.41854 8.40535 6.34263 7.87889 6.33982Z" fill="black"/>
</svg>
