<svg width="22" height="20" viewBox="0 0 22 20" fill="none" xmlns="http://www.w3.org/2000/svg">
<path d="M11 19.6198C10.8527 19.6194 10.7097 19.5701 10.5934 19.4798C6.8867 16.5998 4.33337 14.1198 2.5467 11.6732C0.2667 8.54649 -0.2533 5.65982 1.00003 3.09316C1.89337 1.25982 4.46003 -0.240177 7.46003 0.633156C8.89039 1.04632 10.1384 1.93235 11 3.14649C11.8617 1.93235 13.1097 1.04632 14.54 0.633156C17.5334 -0.226843 20.1067 1.25982 21 3.09316C22.2534 5.65982 21.7334 8.54649 19.4534 11.6732C17.6667 14.1198 15.1134 16.5998 11.4067 19.4798C11.2903 19.5701 11.1473 19.6194 11 19.6198V19.6198ZM5.75337 1.71982C5.03954 1.69204 4.33162 1.85919 3.7056 2.20332C3.07958 2.54746 2.5591 3.05558 2.20003 3.67316C1.1667 5.79316 1.63337 8.15316 3.6267 10.8798C5.74508 13.6122 8.22564 16.0434 11 18.1065C13.774 16.0455 16.2545 13.6165 18.3734 10.8865C20.3734 8.15316 20.8334 5.79316 19.8 3.67982C19.1334 2.34649 17.1334 1.28649 14.9067 1.91316C14.1927 2.12416 13.5308 2.4823 12.9636 2.96454C12.3964 3.44678 11.9365 4.04243 11.6134 4.71316C11.5631 4.83543 11.4777 4.94001 11.3679 5.01361C11.2581 5.08721 11.1289 5.12651 10.9967 5.12651C10.8645 5.12651 10.7353 5.08721 10.6255 5.01361C10.5157 4.94001 10.4303 4.83543 10.38 4.71316C10.0594 4.04075 9.60019 3.44371 9.03263 2.96117C8.46507 2.47863 7.80194 2.12149 7.0867 1.91316C6.65335 1.78729 6.20462 1.72222 5.75337 1.71982V1.71982Z" fill="black"/>
</svg>
