<svg width="55" height="55" viewBox="0 0 55 55" fill="none" xmlns="http://www.w3.org/2000/svg">
<circle cx="27.5" cy="27.5" r="27.5" fill="#FC5550"/>
<path d="M27 16.8125C23.1332 16.8125 20 19.9331 20 23.7985C20 30.4821 27 39.1985 27 39.1985C27 39.1985 34 30.4807 34 23.7985C34 19.9345 30.8668 16.8125 27 16.8125ZM27 27.6639C25.9975 27.6639 25.036 27.2657 24.3271 26.5568C23.6182 25.8479 23.22 24.8864 23.22 23.8839C23.22 22.8814 23.6182 21.9199 24.3271 21.211C25.036 20.5021 25.9975 20.1039 27 20.1039C28.0025 20.1039 28.964 20.5021 29.6729 21.211C30.3818 21.9199 30.78 22.8814 30.78 23.8839C30.78 24.8864 30.3818 25.8479 29.6729 26.5568C28.964 27.2657 28.0025 27.6639 27 27.6639Z" fill="white"/>
</svg>
