<svg width="77" height="37" viewBox="0 0 77 37" fill="none" xmlns="http://www.w3.org/2000/svg">
<path d="M26.7007 29V9.72559H30.2866V25.8623H35.2568V29H26.7007ZM40.8862 29H37.3794V14.3135H40.8862V29ZM37.2344 10.4771C37.2344 9.89697 37.4014 9.43994 37.7354 9.10596C38.0781 8.76318 38.5527 8.5918 39.1592 8.5918C39.7305 8.5918 40.1875 8.76318 40.5303 9.10596C40.873 9.43994 41.0444 9.89697 41.0444 10.4771C41.0444 11.0747 40.8687 11.5405 40.5171 11.8745C40.1655 12.1997 39.7129 12.3623 39.1592 12.3623C38.5791 12.3623 38.1133 12.1997 37.7617 11.8745C37.4102 11.5405 37.2344 11.0747 37.2344 10.4771ZM58.4731 29V20.2461C58.4731 18.0928 57.9414 17.0161 56.8779 17.0161C56.1045 17.0161 55.5508 17.4028 55.2168 18.1763C54.8828 18.9409 54.7158 20.1714 54.7158 21.8677V29H51.1826V20.2461C51.1826 18.0928 50.6421 17.0161 49.561 17.0161C48.8052 17.0161 48.2559 17.3984 47.9131 18.1631C47.5703 18.9277 47.3989 20.189 47.3989 21.9468V29H43.8921V14.3135H46.6738L47.0957 16.1987H47.3198C47.6714 15.4517 48.1504 14.9067 48.7568 14.564C49.3721 14.2124 50.0269 14.0366 50.7212 14.0366C52.5142 14.0366 53.7095 14.8848 54.3071 16.5811H54.439C55.186 14.8848 56.3857 14.0366 58.0381 14.0366C59.3389 14.0366 60.3232 14.4937 60.9912 15.4077C61.668 16.3218 62.0063 17.6577 62.0063 19.4155V29H58.4731ZM75.7305 21.6304C75.7305 24.0386 75.2207 25.915 74.2012 27.2598C73.1816 28.5957 71.7842 29.2637 70.0088 29.2637C68.8838 29.2637 67.8906 28.9561 67.0293 28.3408C66.168 27.7256 65.5044 26.8423 65.0386 25.6909C64.5728 24.5308 64.3398 23.1772 64.3398 21.6304C64.3398 19.2485 64.8452 17.3896 65.856 16.0537C66.8667 14.709 68.2686 14.0366 70.0615 14.0366C71.793 14.0366 73.1685 14.7222 74.188 16.0933C75.2163 17.4556 75.7305 19.3013 75.7305 21.6304ZM67.9258 21.6304C67.9258 23.1597 68.0928 24.3154 68.4268 25.0977C68.7607 25.8799 69.2969 26.271 70.0352 26.271C71.4414 26.271 72.1445 24.7241 72.1445 21.6304C72.1445 20.0923 71.9731 18.9453 71.6304 18.1895C71.2964 17.4248 70.7646 17.0425 70.0352 17.0425C69.2969 17.0425 68.7607 17.4248 68.4268 18.1895C68.0928 18.9453 67.9258 20.0923 67.9258 21.6304Z" fill="black"/>
<path d="M3 10.0001C2.73478 10.0001 2.48043 10.1054 2.29289 10.293C2.10536 10.4805 2 10.7349 2 11.0001V16.5001C2 18.1901 3.03 19.6301 4.5 20.2201V26.5001C4.5 26.8979 4.65804 27.2794 4.93934 27.5607C5.22064 27.842 5.60218 28.0001 6 28.0001C6.39782 28.0001 6.77936 27.842 7.06066 27.5607C7.34196 27.2794 7.5 26.8979 7.5 26.5001V20.2201C8.97 19.6301 10 18.1901 10 16.5001V11.0001C10 10.7349 9.89464 10.4805 9.70711 10.293C9.51957 10.1054 9.26522 10.0001 9 10.0001C8.73478 10.0001 8.48043 10.1054 8.29289 10.293C8.10536 10.4805 8 10.7349 8 11.0001V15.0001C8 15.1327 7.94732 15.2599 7.85355 15.3536C7.75979 15.4474 7.63261 15.5001 7.5 15.5001C7.36739 15.5001 7.24021 15.4474 7.14645 15.3536C7.05268 15.2599 7 15.1327 7 15.0001V11.0001C7 10.7349 6.89464 10.4805 6.70711 10.293C6.51957 10.1054 6.26522 10.0001 6 10.0001C5.73478 10.0001 5.48043 10.1054 5.29289 10.293C5.10536 10.4805 5 10.7349 5 11.0001V15.0001C5 15.1327 4.94732 15.2599 4.85355 15.3536C4.75979 15.4474 4.63261 15.5001 4.5 15.5001C4.36739 15.5001 4.24021 15.4474 4.14645 15.3536C4.05268 15.2599 4 15.1327 4 15.0001V11.0001C4 10.7349 3.89464 10.4805 3.70711 10.293C3.51957 10.1054 3.26522 10.0001 3 10.0001ZM19.88 10.0001C19.75 10.0001 19.62 10.0901 19.5 10.1601L16 12.2501V16.0001H12V18.0001H13L14 28.0001H20L21 18.0001H22V16.0001H18V13.3401L20.5 11.8401C21 11.5601 21.13 11.0001 20.84 10.5001C20.63 10.1401 20.26 9.95007 19.88 10.0001Z" fill="black"/>
</svg>
