<svg width="55" height="55" viewBox="0 0 55 55" fill="none" xmlns="http://www.w3.org/2000/svg">
<circle cx="27.5" cy="27.5" r="27.5" fill="#FC5550"/>
<g clip-path="url(#clip0_5_144)">
<path d="M37.2009 18.0571L32.7321 17.0259C32.2466 16.9142 31.7481 17.1677 31.5505 17.6231L29.488 22.4356C29.3075 22.8567 29.4278 23.3509 29.7845 23.6388L32.3884 25.77C30.8415 29.0657 28.1388 31.8071 24.7743 33.3841L22.6431 30.7802C22.3509 30.4235 21.861 30.3032 21.4399 30.4837L16.6274 32.5462C16.1677 32.7481 15.9141 33.2466 16.0259 33.7321L17.0571 38.2009C17.1645 38.6649 17.577 39.0001 18.0626 39.0001C29.0669 39.0001 38.0001 30.0841 38.0001 19.0626C38.0001 18.5813 37.6692 18.1646 37.2009 18.0571Z" fill="white"/>
</g>
<defs>
<clipPath id="clip0_5_144">
<rect width="22" height="22" fill="white" transform="translate(16 17)"/>
</clipPath>
</defs>
</svg>
